PathFileType	4	(X/Y/Z)	s01c0102.trc
DataRate	CameraRate	NumFrames	NumMarkers	Units	OrigDataRate	OrigDataStartFrame	OrigNumFrames
200	200	4	48	mm	200	1250	2000
Frame#	Time	racr			lacr			c7			jug			rlel			rdr			llel			ldr			s2			lic			ric			lasi			rasi			rpsi			lpsi			rgt			lgt			rth1			rth2			rth3			rth4			rlfc			rsh1			rsh2			rsh3			rsh4			rlmal			rmmal			rcal			rtoe			rmt5			lth1			lth2			lth4			lth3			llfc			lsh1			lsh2			lsh3			lsh4			llmal			lmmal			lcal			ltoe			lmt5			SBIKE			LBIKE			RBIKE			
		X1	Y1	Z1	X2	Y2	Z2	X3	Y3	Z3	X4	Y4	Z4	X5	Y5	Z5	X6	Y6	Z6	X7	Y7	Z7	X8	Y8	Z8	X9	Y9	Z9	X10	Y10	Z10	X11	Y11	Z11	X12	Y12	Z12	X13	Y13	Z13	X14	Y14	Z14	X15	Y15	Z15	X16	Y16	Z16	X17	Y17	Z17	X18	Y18	Z18	X19	Y19	Z19	X20	Y20	Z20	X21	Y21	Z21	X22	Y22	Z22	X23	Y23	Z23	X24	Y24	Z24	X25	Y25	Z25	X26	Y26	Z26	X27	Y27	Z27	X28	Y28	Z28	X29	Y29	Z29	X30	Y30	Z30	X31	Y31	Z31	X32	Y32	Z32	X33	Y33	Z33	X34	Y34	Z34	X35	Y35	Z35	X36	Y36	Z36	X37	Y37	Z37	X38	Y38	Z38	X39	Y39	Z39	X40	Y40	Z40	X41	Y41	Z41	X42	Y42	Z42	X43	Y43	Z43	X44	Y44	Z44	X45	Y45	Z45	X46	Y46	Z46	X47	Y47	Z47	X48	Y48	Z48	
1250	6.2500	521.403234	1329.384927	-141.309863	516.978255	1297.522113	-445.748403	474.254893	1393.365954	-290.370451	464.075760	1232.674769	-286.495866	585.551378	1070.522782	-29.894430	735.785729	858.384400	-81.770652	518.570052	1030.627912	-558.303165	708.690645	882.304742	-455.757939	-58.229918	1174.695704	-245.545015	95.493773	1198.844275	-435.883673	114.387088	1179.689122	-106.220832	103.133141	1147.245954	-407.152483	138.225103	1131.860528	-128.432946	-25.131088	1213.855117	-194.988005	-38.803214	1221.638424	-298.804502	53.421646	1057.646091	-74.268440	58.297967	1083.947574	-459.614190	116.366373	945.304845	-51.405784	160.473304	875.285004	-53.613227	203.375283	796.158298	-59.899985	209.289605	902.424389	-62.155199	233.410202	685.770675	-84.136563	194.386462	577.385249	-53.302742	182.024915	493.629845	-57.726789	161.257382	407.477960	-68.562008	232.889897	485.147138	-89.127068	131.031941	293.381164	-89.554249	168.952719	297.642480	-164.691377	87.577936	298.435294	-143.364838	297.430995	126.253335	-145.005950	198.413342	158.714809	-69.156165	162.387847	1022.483038	-464.951360	251.104821	1019.459119	-470.654837	255.284058	1073.032323	-460.187109	335.727232	1006.775567	-462.752205	422.108897	963.958322	-461.814015	360.344908	886.880810	-463.634333	316.992446	810.905218	-458.480997	273.228095	738.593238	-440.932802	367.612477	785.128575	-434.685316	200.632363	601.070890	-417.232985	232.940792	613.389683	-337.753856	143.940117	593.280713	-371.922229	397.415453	485.224196	-384.198176	289.877157	500.391970	-447.531418	-229.735331	891.326837	-254.664636	-22.413262	80.708285	-456.179278	-22.738030	80.317005	-55.880457	
1251	6.2550	521.533385	1328.689466	-141.351995	516.715863	1297.046234	-446.133460	474.436313	1393.080025	-290.335396	463.714154	1232.469799	-286.379515	585.314223	1070.120361	-29.195456	735.814693	858.217995	-81.596271	516.708369	1029.985789	-558.280561	708.306782	882.813566	-456.002964	-58.744927	1177.256306	-245.067592	95.575311	1202.255900	-436.865559	113.609183	1180.995421	-105.537110	102.244666	1149.659478	-406.647046	137.288140	1132.953307	-127.855981	-25.477490	1216.071574	-194.304116	-39.161447	1224.272627	-298.065919	52.325509	1059.291724	-73.927569	57.210651	1086.841034	-458.602770	116.939021	946.682214	-51.878490	162.073133	877.384546	-54.471887	206.173817	798.795234	-61.572864	210.294132	905.196921	-63.044816	236.445941	688.987722	-85.157519	195.367649	581.237905	-54.357717	181.320087	497.820832	-58.908077	158.756537	412.251145	-69.610798	231.775845	488.363630	-90.574404	125.460973	298.974050	-90.124982	163.845544	301.655372	-165.351384	82.018113	304.915092	-143.865762	287.347705	126.978492	-144.954516	189.345778	162.777870	-69.515126	161.230261	1023.651556	-463.779042	249.852877	1019.629420	-468.741083	254.771702	1073.056219	-457.754040	334.535888	1006.416769	-461.301890	420.140238	963.055318	-458.276342	360.123977	883.342509	-460.749702	317.750139	806.441090	-456.603230	275.072295	733.584097	-440.230516	368.899909	781.338846	-433.106474	205.668552	594.566494	-416.958079	237.130424	607.376128	-337.662705	148.572769	584.085369	-372.567405	406.127954	485.760774	-384.458262	298.142103	496.533780	-448.632248	-229.764968	891.302432	-254.820877	-22.416239	80.699135	-456.200101	-22.759234	80.371810	-55.893221	
1252	6.2600	521.595115	1328.026278	-141.493916	516.349729	1296.361242	-446.754988	474.499758	1392.754238	-290.307218	463.321824	1231.984497	-286.138402	585.137426	1069.687960	-28.582766	735.773050	858.013694	-81.414676	515.258565	1029.244673	-558.165582	707.990968	883.120684	-456.115477	-59.102986	1179.634630	-244.514514	94.821541	1204.993081	-436.865694	113.045959	1182.242515	-104.748657	101.619819	1151.652042	-406.200613	135.364293	1134.476434	-128.295405	-25.877390	1218.234781	-193.675474	-39.380975	1226.698851	-297.311143	51.280200	1060.885358	-73.429239	55.975582	1089.690383	-457.491139	117.780480	948.055158	-52.282482	164.071369	879.496056	-55.441272	209.438432	801.611118	-63.239935	211.655019	908.016963	-64.062701	240.101727	692.417951	-86.409300	196.764523	585.383761	-55.479489	180.878282	502.293643	-60.155413	156.354881	417.187763	-70.910390	230.893382	491.711062	-92.268436	119.877541	304.909936	-90.776258	158.373360	306.240056	-166.311025	76.410313	311.491101	-144.921273	277.454321	128.565307	-144.902974	180.338355	167.360259	-69.972807	159.742166	1024.085228	-462.565711	248.274949	1018.835109	-466.835339	253.909950	1072.344187	-456.011554	332.627039	1004.323399	-457.953947	418.032233	961.148288	-454.646755	359.514999	878.568251	-458.309807	318.570330	801.166945	-455.028720	276.875728	727.211634	-439.585076	369.974856	776.351263	-431.584216	210.666291	587.309229	-416.624297	241.224604	600.530913	-337.544821	153.224239	574.099049	-373.188699	414.406986	485.499741	-384.908591	305.953766	492.091312	-449.332226	-229.767205	891.271822	-254.968273	-22.428359	80.695659	-456.222643	-22.818186	80.464684	-55.949640	
1253	6.2650	521.624065	1326.398578	-143.656627	516.162719	1295.769392	-446.996492	474.465865	1392.482907	-290.303843	463.005595	1231.154444	-285.873722	585.031715	1069.246730	-28.131657	735.725281	857.805651	-81.182617	514.121963	1028.402362	-558.076680	707.740373	883.351945	-456.063287	-59.422185	1181.927100	-243.926148	94.196007	1207.534237	-436.772110	112.297713	1183.458847	-104.117463	101.120344	1153.369999	-405.801064	134.500828	1135.728467	-127.684268	-26.246064	1220.283792	-192.974759	-39.550844	1228.990722	-296.656148	50.373763	1062.318077	-72.920504	54.709855	1092.266662	-456.392547	118.914688	949.313428	-52.731092	166.285486	881.636332	-56.565807	212.989622	804.657665	-64.709367	213.288363	911.094002	-65.227056	243.829170	695.991975	-87.910265	198.598203	589.599074	-56.699610	180.644596	506.970790	-61.456256	154.060704	422.478143	-72.144354	230.085351	495.276360	-94.135964	114.207486	311.305994	-91.673348	152.625980	311.165572	-167.737713	70.677457	318.460087	-146.202447	267.710110	130.937693	-144.762684	171.468070	172.548337	-70.339732	158.118847	1023.799978	-461.344561	246.530041	1017.131153	-464.717485	252.895965	1070.697977	-454.528271	330.516408	1001.485898	-455.312117	415.792343	958.230386	-451.024618	358.732803	872.620762	-456.336396	319.104724	794.743004	-453.698324	278.607671	719.810160	-438.987403	370.843923	770.458959	-430.166500	215.627980	579.343628	-416.227493	245.250386	592.902560	-337.387255	157.923329	563.406327	-373.742489	422.349033	484.590362	-385.224645	313.802328	486.588706	-449.896734	-229.744390	891.235739	-255.087323	-22.399500	80.666014	-456.251830	-22.751230	80.413927	-55.952768	
